<mxfile host="app.diagrams.net" modified="2023-12-09T18:02:03.998Z" agent="Mozilla/5.0 (Windows NT 10.0; Win64; x64; rv:120.0) Gecko/20100101 Firefox/120.0" etag="QtSq7As3atTlFBJMeHwQ" version="22.1.7" type="github">
  <diagram name="Page-1" id="zOc19bSW-Kswz4evR8Pf">
    <mxGraphModel dx="3539" dy="683" grid="1" gridSize="10" guides="1" tooltips="1" connect="1" arrows="1" fold="1" page="1" pageScale="1" pageWidth="850" pageHeight="1100" math="0" shadow="0">
      <root>
        <mxCell id="0" />
        <mxCell id="1" parent="0" />
        <mxCell id="iNkzKhBe8dIxD7oaoD0P-329" value="&lt;div style=&quot;font-size: 10px;&quot;&gt;&lt;font style=&quot;font-size: 10px;&quot;&gt;Task&lt;/font&gt;&lt;/div&gt;" style="rounded=0;whiteSpace=wrap;html=1;fontFamily=inconsolata;fillColor=#ffffd9;fontSource=https%3A%2F%2Ffonts.googleapis.com%2Fcss%3Ffamily%3Dinconsolata;" vertex="1" parent="1">
          <mxGeometry x="-1095" y="160" width="40" height="20" as="geometry" />
        </mxCell>
        <mxCell id="iNkzKhBe8dIxD7oaoD0P-389" value="&lt;div style=&quot;font-size: 10px;&quot;&gt;&lt;div&gt;&lt;font style=&quot;font-size: 10px;&quot;&gt;Organization&lt;/font&gt;&lt;/div&gt;&lt;/div&gt;" style="rounded=0;whiteSpace=wrap;html=1;fontFamily=inconsolata;fillColor=#225ea8;fontSource=https%3A%2F%2Ffonts.googleapis.com%2Fcss%3Ffamily%3Dinconsolata;" vertex="1" parent="1">
          <mxGeometry x="-1495" y="160" width="80" height="640" as="geometry" />
        </mxCell>
        <mxCell id="iNkzKhBe8dIxD7oaoD0P-390" value="&lt;div style=&quot;font-size: 10px;&quot;&gt;&lt;div&gt;&lt;font style=&quot;font-size: 10px;&quot; data-font-src=&quot;https://fonts.googleapis.com/css?family=inconsolata&quot;&gt;Portfolio&lt;/font&gt;&lt;font style=&quot;font-size: 10px;&quot;&gt;&lt;br&gt;&lt;/font&gt;&lt;/div&gt;&lt;/div&gt;" style="rounded=0;whiteSpace=wrap;html=1;fontFamily=inconsolata;fillColor=#1d91c0;fontSource=https%3A%2F%2Ffonts.googleapis.com%2Fcss%3Ffamily%3Dinconsolata;" vertex="1" parent="1">
          <mxGeometry x="-1415" y="160" width="80" height="320" as="geometry" />
        </mxCell>
        <mxCell id="iNkzKhBe8dIxD7oaoD0P-392" value="&lt;div style=&quot;font-size: 10px;&quot;&gt;&lt;font style=&quot;font-size: 10px;&quot;&gt;Program&lt;/font&gt;&lt;/div&gt;" style="rounded=0;whiteSpace=wrap;html=1;fontFamily=inconsolata;fillColor=#41b6c4;fontSource=https%3A%2F%2Ffonts.googleapis.com%2Fcss%3Ffamily%3Dinconsolata;" vertex="1" parent="1">
          <mxGeometry x="-1335" y="160" width="80" height="160" as="geometry" />
        </mxCell>
        <mxCell id="iNkzKhBe8dIxD7oaoD0P-396" value="&lt;div style=&quot;font-size: 10px;&quot;&gt;&lt;div&gt;&lt;font style=&quot;font-size: 10px;&quot;&gt;Project&lt;/font&gt;&lt;/div&gt;&lt;/div&gt;" style="rounded=0;whiteSpace=wrap;html=1;fontFamily=inconsolata;fillColor=#c7e9b4;fontSource=https%3A%2F%2Ffonts.googleapis.com%2Fcss%3Ffamily%3Dinconsolata;" vertex="1" parent="1">
          <mxGeometry x="-1255" y="160" width="80" height="80" as="geometry" />
        </mxCell>
        <mxCell id="iNkzKhBe8dIxD7oaoD0P-402" value="&lt;div style=&quot;font-size: 10px;&quot;&gt;&lt;font style=&quot;font-size: 10px;&quot;&gt;Milestone&lt;/font&gt;&lt;/div&gt;" style="rounded=0;whiteSpace=wrap;html=1;fontFamily=inconsolata;fillColor=#edf8b1;fontSource=https%3A%2F%2Ffonts.googleapis.com%2Fcss%3Ffamily%3Dinconsolata;" vertex="1" parent="1">
          <mxGeometry x="-1175" y="160" width="80" height="40" as="geometry" />
        </mxCell>
        <mxCell id="iNkzKhBe8dIxD7oaoD0P-462" value="&lt;div style=&quot;font-size: 10px;&quot;&gt;&lt;font style=&quot;font-size: 10px;&quot;&gt;Task&lt;/font&gt;&lt;/div&gt;" style="rounded=0;whiteSpace=wrap;html=1;fontFamily=inconsolata;fillColor=#ffffd9;fontSource=https%3A%2F%2Ffonts.googleapis.com%2Fcss%3Ffamily%3Dinconsolata;" vertex="1" parent="1">
          <mxGeometry x="-1095" y="180" width="40" height="20" as="geometry" />
        </mxCell>
        <mxCell id="iNkzKhBe8dIxD7oaoD0P-463" value="&lt;div style=&quot;font-size: 10px;&quot;&gt;&lt;font style=&quot;font-size: 10px;&quot;&gt;Task&lt;/font&gt;&lt;/div&gt;" style="rounded=0;whiteSpace=wrap;html=1;fontFamily=inconsolata;fillColor=#ffffd9;fontSource=https%3A%2F%2Ffonts.googleapis.com%2Fcss%3Ffamily%3Dinconsolata;" vertex="1" parent="1">
          <mxGeometry x="-1095" y="200" width="40" height="20" as="geometry" />
        </mxCell>
        <mxCell id="iNkzKhBe8dIxD7oaoD0P-464" value="&lt;div style=&quot;font-size: 10px;&quot;&gt;&lt;font style=&quot;font-size: 10px;&quot;&gt;Milestone&lt;/font&gt;&lt;/div&gt;" style="rounded=0;whiteSpace=wrap;html=1;fontFamily=inconsolata;fillColor=#edf8b1;fontSource=https%3A%2F%2Ffonts.googleapis.com%2Fcss%3Ffamily%3Dinconsolata;" vertex="1" parent="1">
          <mxGeometry x="-1175" y="200" width="80" height="40" as="geometry" />
        </mxCell>
        <mxCell id="iNkzKhBe8dIxD7oaoD0P-465" value="&lt;div style=&quot;font-size: 10px;&quot;&gt;&lt;font style=&quot;font-size: 10px;&quot;&gt;Task&lt;/font&gt;&lt;/div&gt;" style="rounded=0;whiteSpace=wrap;html=1;fontFamily=inconsolata;fillColor=#ffffd9;fontSource=https%3A%2F%2Ffonts.googleapis.com%2Fcss%3Ffamily%3Dinconsolata;" vertex="1" parent="1">
          <mxGeometry x="-1095" y="220" width="40" height="20" as="geometry" />
        </mxCell>
        <mxCell id="iNkzKhBe8dIxD7oaoD0P-466" value="&lt;div style=&quot;font-size: 10px;&quot;&gt;&lt;font style=&quot;font-size: 10px;&quot;&gt;Task&lt;/font&gt;&lt;/div&gt;" style="rounded=0;whiteSpace=wrap;html=1;fontFamily=inconsolata;fillColor=#ffffd9;fontSource=https%3A%2F%2Ffonts.googleapis.com%2Fcss%3Ffamily%3Dinconsolata;" vertex="1" parent="1">
          <mxGeometry x="-1095" y="240" width="40" height="20" as="geometry" />
        </mxCell>
        <mxCell id="iNkzKhBe8dIxD7oaoD0P-467" value="&lt;div style=&quot;font-size: 10px;&quot;&gt;&lt;div&gt;&lt;font style=&quot;font-size: 10px;&quot;&gt;Project&lt;/font&gt;&lt;/div&gt;&lt;/div&gt;" style="rounded=0;whiteSpace=wrap;html=1;fontFamily=inconsolata;fillColor=#c7e9b4;fontSource=https%3A%2F%2Ffonts.googleapis.com%2Fcss%3Ffamily%3Dinconsolata;" vertex="1" parent="1">
          <mxGeometry x="-1255" y="240" width="80" height="160" as="geometry" />
        </mxCell>
        <mxCell id="iNkzKhBe8dIxD7oaoD0P-468" value="&lt;div style=&quot;font-size: 10px;&quot;&gt;&lt;font style=&quot;font-size: 10px;&quot;&gt;Milestone&lt;/font&gt;&lt;/div&gt;" style="rounded=0;whiteSpace=wrap;html=1;fontFamily=inconsolata;fillColor=#edf8b1;fontSource=https%3A%2F%2Ffonts.googleapis.com%2Fcss%3Ffamily%3Dinconsolata;" vertex="1" parent="1">
          <mxGeometry x="-1175" y="240" width="80" height="40" as="geometry" />
        </mxCell>
        <mxCell id="iNkzKhBe8dIxD7oaoD0P-469" value="&lt;div style=&quot;font-size: 10px;&quot;&gt;&lt;font style=&quot;font-size: 10px;&quot;&gt;Task&lt;/font&gt;&lt;/div&gt;" style="rounded=0;whiteSpace=wrap;html=1;fontFamily=inconsolata;fillColor=#ffffd9;fontSource=https%3A%2F%2Ffonts.googleapis.com%2Fcss%3Ffamily%3Dinconsolata;" vertex="1" parent="1">
          <mxGeometry x="-1095" y="260" width="40" height="20" as="geometry" />
        </mxCell>
        <mxCell id="iNkzKhBe8dIxD7oaoD0P-470" value="&lt;div style=&quot;font-size: 10px;&quot;&gt;&lt;font style=&quot;font-size: 10px;&quot;&gt;Task&lt;/font&gt;&lt;/div&gt;" style="rounded=0;whiteSpace=wrap;html=1;fontFamily=inconsolata;fillColor=#ffffd9;fontSource=https%3A%2F%2Ffonts.googleapis.com%2Fcss%3Ffamily%3Dinconsolata;" vertex="1" parent="1">
          <mxGeometry x="-1095" y="280" width="40" height="20" as="geometry" />
        </mxCell>
        <mxCell id="iNkzKhBe8dIxD7oaoD0P-471" value="&lt;div style=&quot;font-size: 10px;&quot;&gt;&lt;font style=&quot;font-size: 10px;&quot;&gt;Milestone&lt;/font&gt;&lt;/div&gt;" style="rounded=0;whiteSpace=wrap;html=1;fontFamily=inconsolata;fillColor=#edf8b1;fontSource=https%3A%2F%2Ffonts.googleapis.com%2Fcss%3Ffamily%3Dinconsolata;" vertex="1" parent="1">
          <mxGeometry x="-1175" y="280" width="80" height="40" as="geometry" />
        </mxCell>
        <mxCell id="iNkzKhBe8dIxD7oaoD0P-472" value="&lt;div style=&quot;font-size: 10px;&quot;&gt;&lt;font style=&quot;font-size: 10px;&quot;&gt;Task&lt;/font&gt;&lt;/div&gt;" style="rounded=0;whiteSpace=wrap;html=1;fontFamily=inconsolata;fillColor=#ffffd9;fontSource=https%3A%2F%2Ffonts.googleapis.com%2Fcss%3Ffamily%3Dinconsolata;" vertex="1" parent="1">
          <mxGeometry x="-1095" y="300" width="40" height="20" as="geometry" />
        </mxCell>
        <mxCell id="iNkzKhBe8dIxD7oaoD0P-473" value="&lt;div style=&quot;font-size: 10px;&quot;&gt;&lt;font style=&quot;font-size: 10px;&quot;&gt;Task&lt;/font&gt;&lt;/div&gt;" style="rounded=0;whiteSpace=wrap;html=1;fontFamily=inconsolata;fillColor=#ffffd9;fontSource=https%3A%2F%2Ffonts.googleapis.com%2Fcss%3Ffamily%3Dinconsolata;" vertex="1" parent="1">
          <mxGeometry x="-1095" y="320" width="40" height="20" as="geometry" />
        </mxCell>
        <mxCell id="iNkzKhBe8dIxD7oaoD0P-476" value="&lt;div style=&quot;font-size: 10px;&quot;&gt;&lt;font style=&quot;font-size: 10px;&quot;&gt;Milestone&lt;/font&gt;&lt;/div&gt;" style="rounded=0;whiteSpace=wrap;html=1;fontFamily=inconsolata;fillColor=#edf8b1;fontSource=https%3A%2F%2Ffonts.googleapis.com%2Fcss%3Ffamily%3Dinconsolata;" vertex="1" parent="1">
          <mxGeometry x="-1175" y="320" width="80" height="40" as="geometry" />
        </mxCell>
        <mxCell id="iNkzKhBe8dIxD7oaoD0P-477" value="&lt;div style=&quot;font-size: 10px;&quot;&gt;&lt;font style=&quot;font-size: 10px;&quot;&gt;Task&lt;/font&gt;&lt;/div&gt;" style="rounded=0;whiteSpace=wrap;html=1;fontFamily=inconsolata;fillColor=#ffffd9;fontSource=https%3A%2F%2Ffonts.googleapis.com%2Fcss%3Ffamily%3Dinconsolata;" vertex="1" parent="1">
          <mxGeometry x="-1095" y="340" width="40" height="20" as="geometry" />
        </mxCell>
        <mxCell id="iNkzKhBe8dIxD7oaoD0P-478" value="&lt;div style=&quot;font-size: 10px;&quot;&gt;&lt;font style=&quot;font-size: 10px;&quot;&gt;Task&lt;/font&gt;&lt;/div&gt;" style="rounded=0;whiteSpace=wrap;html=1;fontFamily=inconsolata;fillColor=#ffffd9;fontSource=https%3A%2F%2Ffonts.googleapis.com%2Fcss%3Ffamily%3Dinconsolata;" vertex="1" parent="1">
          <mxGeometry x="-1095" y="360" width="40" height="20" as="geometry" />
        </mxCell>
        <mxCell id="iNkzKhBe8dIxD7oaoD0P-479" value="&lt;div style=&quot;font-size: 10px;&quot;&gt;&lt;font style=&quot;font-size: 10px;&quot;&gt;Milestone&lt;/font&gt;&lt;/div&gt;" style="rounded=0;whiteSpace=wrap;html=1;fontFamily=inconsolata;fillColor=#edf8b1;fontSource=https%3A%2F%2Ffonts.googleapis.com%2Fcss%3Ffamily%3Dinconsolata;" vertex="1" parent="1">
          <mxGeometry x="-1175" y="360" width="80" height="40" as="geometry" />
        </mxCell>
        <mxCell id="iNkzKhBe8dIxD7oaoD0P-480" value="&lt;div style=&quot;font-size: 10px;&quot;&gt;&lt;font style=&quot;font-size: 10px;&quot;&gt;Task&lt;/font&gt;&lt;/div&gt;" style="rounded=0;whiteSpace=wrap;html=1;fontFamily=inconsolata;fillColor=#ffffd9;fontSource=https%3A%2F%2Ffonts.googleapis.com%2Fcss%3Ffamily%3Dinconsolata;" vertex="1" parent="1">
          <mxGeometry x="-1095" y="380" width="40" height="20" as="geometry" />
        </mxCell>
        <mxCell id="iNkzKhBe8dIxD7oaoD0P-481" value="&lt;div style=&quot;font-size: 10px;&quot;&gt;&lt;font style=&quot;font-size: 10px;&quot;&gt;Task&lt;/font&gt;&lt;/div&gt;" style="rounded=0;whiteSpace=wrap;html=1;fontFamily=inconsolata;fillColor=#ffffd9;fontSource=https%3A%2F%2Ffonts.googleapis.com%2Fcss%3Ffamily%3Dinconsolata;" vertex="1" parent="1">
          <mxGeometry x="-1095" y="400" width="40" height="20" as="geometry" />
        </mxCell>
        <mxCell id="iNkzKhBe8dIxD7oaoD0P-482" value="&lt;div style=&quot;font-size: 10px;&quot;&gt;&lt;div&gt;&lt;font style=&quot;font-size: 10px;&quot;&gt;Project&lt;/font&gt;&lt;/div&gt;&lt;/div&gt;" style="rounded=0;whiteSpace=wrap;html=1;fontFamily=inconsolata;fillColor=#c7e9b4;fontSource=https%3A%2F%2Ffonts.googleapis.com%2Fcss%3Ffamily%3Dinconsolata;" vertex="1" parent="1">
          <mxGeometry x="-1255" y="400" width="80" height="80" as="geometry" />
        </mxCell>
        <mxCell id="iNkzKhBe8dIxD7oaoD0P-483" value="&lt;div style=&quot;font-size: 10px;&quot;&gt;&lt;font style=&quot;font-size: 10px;&quot;&gt;Milestone&lt;/font&gt;&lt;/div&gt;" style="rounded=0;whiteSpace=wrap;html=1;fontFamily=inconsolata;fillColor=#edf8b1;fontSource=https%3A%2F%2Ffonts.googleapis.com%2Fcss%3Ffamily%3Dinconsolata;" vertex="1" parent="1">
          <mxGeometry x="-1175" y="400" width="80" height="40" as="geometry" />
        </mxCell>
        <mxCell id="iNkzKhBe8dIxD7oaoD0P-484" value="&lt;div style=&quot;font-size: 10px;&quot;&gt;&lt;font style=&quot;font-size: 10px;&quot;&gt;Task&lt;/font&gt;&lt;/div&gt;" style="rounded=0;whiteSpace=wrap;html=1;fontFamily=inconsolata;fillColor=#ffffd9;fontSource=https%3A%2F%2Ffonts.googleapis.com%2Fcss%3Ffamily%3Dinconsolata;" vertex="1" parent="1">
          <mxGeometry x="-1095" y="420" width="40" height="20" as="geometry" />
        </mxCell>
        <mxCell id="iNkzKhBe8dIxD7oaoD0P-485" value="&lt;div style=&quot;font-size: 10px;&quot;&gt;&lt;font style=&quot;font-size: 10px;&quot;&gt;Task&lt;/font&gt;&lt;/div&gt;" style="rounded=0;whiteSpace=wrap;html=1;fontFamily=inconsolata;fillColor=#ffffd9;fontSource=https%3A%2F%2Ffonts.googleapis.com%2Fcss%3Ffamily%3Dinconsolata;" vertex="1" parent="1">
          <mxGeometry x="-1095" y="440" width="40" height="20" as="geometry" />
        </mxCell>
        <mxCell id="iNkzKhBe8dIxD7oaoD0P-486" value="&lt;div style=&quot;font-size: 10px;&quot;&gt;&lt;font style=&quot;font-size: 10px;&quot;&gt;Milestone&lt;/font&gt;&lt;/div&gt;" style="rounded=0;whiteSpace=wrap;html=1;fontFamily=inconsolata;fillColor=#edf8b1;fontSource=https%3A%2F%2Ffonts.googleapis.com%2Fcss%3Ffamily%3Dinconsolata;" vertex="1" parent="1">
          <mxGeometry x="-1175" y="440" width="80" height="40" as="geometry" />
        </mxCell>
        <mxCell id="iNkzKhBe8dIxD7oaoD0P-487" value="&lt;div style=&quot;font-size: 10px;&quot;&gt;&lt;font style=&quot;font-size: 10px;&quot;&gt;Task&lt;/font&gt;&lt;/div&gt;" style="rounded=0;whiteSpace=wrap;html=1;fontFamily=inconsolata;fillColor=#ffffd9;fontSource=https%3A%2F%2Ffonts.googleapis.com%2Fcss%3Ffamily%3Dinconsolata;" vertex="1" parent="1">
          <mxGeometry x="-1095" y="460" width="40" height="20" as="geometry" />
        </mxCell>
        <mxCell id="iNkzKhBe8dIxD7oaoD0P-488" value="&lt;div style=&quot;font-size: 10px;&quot;&gt;&lt;font style=&quot;font-size: 10px;&quot;&gt;Task&lt;/font&gt;&lt;/div&gt;" style="rounded=0;whiteSpace=wrap;html=1;fontFamily=inconsolata;fillColor=#ffffd9;fontSource=https%3A%2F%2Ffonts.googleapis.com%2Fcss%3Ffamily%3Dinconsolata;" vertex="1" parent="1">
          <mxGeometry x="-1095" y="480" width="40" height="20" as="geometry" />
        </mxCell>
        <mxCell id="iNkzKhBe8dIxD7oaoD0P-489" value="&lt;div style=&quot;font-size: 10px;&quot;&gt;&lt;div&gt;&lt;font style=&quot;font-size: 10px;&quot; data-font-src=&quot;https://fonts.googleapis.com/css?family=inconsolata&quot;&gt;Portfolio&lt;/font&gt;&lt;font style=&quot;font-size: 10px;&quot;&gt;&lt;br&gt;&lt;/font&gt;&lt;/div&gt;&lt;/div&gt;" style="rounded=0;whiteSpace=wrap;html=1;fontFamily=inconsolata;fillColor=#1d91c0;fontSource=https%3A%2F%2Ffonts.googleapis.com%2Fcss%3Ffamily%3Dinconsolata;" vertex="1" parent="1">
          <mxGeometry x="-1415" y="480" width="80" height="260" as="geometry" />
        </mxCell>
        <mxCell id="iNkzKhBe8dIxD7oaoD0P-491" value="&lt;div style=&quot;font-size: 10px;&quot;&gt;&lt;div&gt;&lt;font style=&quot;font-size: 10px;&quot;&gt;Project&lt;/font&gt;&lt;/div&gt;&lt;/div&gt;" style="rounded=0;whiteSpace=wrap;html=1;fontFamily=inconsolata;fillColor=#c7e9b4;fontSource=https%3A%2F%2Ffonts.googleapis.com%2Fcss%3Ffamily%3Dinconsolata;" vertex="1" parent="1">
          <mxGeometry x="-1255" y="480" width="80" height="200" as="geometry" />
        </mxCell>
        <mxCell id="iNkzKhBe8dIxD7oaoD0P-492" value="&lt;div style=&quot;font-size: 10px;&quot;&gt;&lt;font style=&quot;font-size: 10px;&quot;&gt;Milestone&lt;/font&gt;&lt;/div&gt;" style="rounded=0;whiteSpace=wrap;html=1;fontFamily=inconsolata;fillColor=#edf8b1;fontSource=https%3A%2F%2Ffonts.googleapis.com%2Fcss%3Ffamily%3Dinconsolata;" vertex="1" parent="1">
          <mxGeometry x="-1175" y="480" width="80" height="40" as="geometry" />
        </mxCell>
        <mxCell id="iNkzKhBe8dIxD7oaoD0P-493" value="&lt;div style=&quot;font-size: 10px;&quot;&gt;&lt;font style=&quot;font-size: 10px;&quot;&gt;Task&lt;/font&gt;&lt;/div&gt;" style="rounded=0;whiteSpace=wrap;html=1;fontFamily=inconsolata;fillColor=#ffffd9;fontSource=https%3A%2F%2Ffonts.googleapis.com%2Fcss%3Ffamily%3Dinconsolata;" vertex="1" parent="1">
          <mxGeometry x="-1095" y="500" width="40" height="20" as="geometry" />
        </mxCell>
        <mxCell id="iNkzKhBe8dIxD7oaoD0P-494" value="&lt;div style=&quot;font-size: 10px;&quot;&gt;&lt;font style=&quot;font-size: 10px;&quot;&gt;Task&lt;/font&gt;&lt;/div&gt;" style="rounded=0;whiteSpace=wrap;html=1;fontFamily=inconsolata;fillColor=#ffffd9;fontSource=https%3A%2F%2Ffonts.googleapis.com%2Fcss%3Ffamily%3Dinconsolata;" vertex="1" parent="1">
          <mxGeometry x="-1095" y="520" width="40" height="20" as="geometry" />
        </mxCell>
        <mxCell id="iNkzKhBe8dIxD7oaoD0P-495" value="&lt;div style=&quot;font-size: 10px;&quot;&gt;&lt;font style=&quot;font-size: 10px;&quot;&gt;Milestone&lt;/font&gt;&lt;/div&gt;" style="rounded=0;whiteSpace=wrap;html=1;fontFamily=inconsolata;fillColor=#edf8b1;fontSource=https%3A%2F%2Ffonts.googleapis.com%2Fcss%3Ffamily%3Dinconsolata;" vertex="1" parent="1">
          <mxGeometry x="-1175" y="520" width="80" height="40" as="geometry" />
        </mxCell>
        <mxCell id="iNkzKhBe8dIxD7oaoD0P-496" value="&lt;div style=&quot;font-size: 10px;&quot;&gt;&lt;font style=&quot;font-size: 10px;&quot;&gt;Task&lt;/font&gt;&lt;/div&gt;" style="rounded=0;whiteSpace=wrap;html=1;fontFamily=inconsolata;fillColor=#ffffd9;fontSource=https%3A%2F%2Ffonts.googleapis.com%2Fcss%3Ffamily%3Dinconsolata;" vertex="1" parent="1">
          <mxGeometry x="-1095" y="540" width="40" height="20" as="geometry" />
        </mxCell>
        <mxCell id="iNkzKhBe8dIxD7oaoD0P-497" value="&lt;div style=&quot;font-size: 10px;&quot;&gt;&lt;font style=&quot;font-size: 10px;&quot;&gt;Task&lt;/font&gt;&lt;/div&gt;" style="rounded=0;whiteSpace=wrap;html=1;fontFamily=inconsolata;fillColor=#ffffd9;fontSource=https%3A%2F%2Ffonts.googleapis.com%2Fcss%3Ffamily%3Dinconsolata;" vertex="1" parent="1">
          <mxGeometry x="-1095" y="560" width="40" height="20" as="geometry" />
        </mxCell>
        <mxCell id="iNkzKhBe8dIxD7oaoD0P-499" value="&lt;div style=&quot;font-size: 10px;&quot;&gt;&lt;font style=&quot;font-size: 10px;&quot;&gt;Milestone&lt;/font&gt;&lt;/div&gt;" style="rounded=0;whiteSpace=wrap;html=1;fontFamily=inconsolata;fillColor=#edf8b1;fontSource=https%3A%2F%2Ffonts.googleapis.com%2Fcss%3Ffamily%3Dinconsolata;" vertex="1" parent="1">
          <mxGeometry x="-1175" y="560" width="80" height="40" as="geometry" />
        </mxCell>
        <mxCell id="iNkzKhBe8dIxD7oaoD0P-500" value="&lt;div style=&quot;font-size: 10px;&quot;&gt;&lt;font style=&quot;font-size: 10px;&quot;&gt;Task&lt;/font&gt;&lt;/div&gt;" style="rounded=0;whiteSpace=wrap;html=1;fontFamily=inconsolata;fillColor=#ffffd9;fontSource=https%3A%2F%2Ffonts.googleapis.com%2Fcss%3Ffamily%3Dinconsolata;" vertex="1" parent="1">
          <mxGeometry x="-1095" y="580" width="40" height="20" as="geometry" />
        </mxCell>
        <mxCell id="iNkzKhBe8dIxD7oaoD0P-501" value="&lt;div style=&quot;font-size: 10px;&quot;&gt;&lt;font style=&quot;font-size: 10px;&quot;&gt;Task&lt;/font&gt;&lt;/div&gt;" style="rounded=0;whiteSpace=wrap;html=1;fontFamily=inconsolata;fillColor=#ffffd9;fontSource=https%3A%2F%2Ffonts.googleapis.com%2Fcss%3Ffamily%3Dinconsolata;" vertex="1" parent="1">
          <mxGeometry x="-1095" y="600" width="40" height="20" as="geometry" />
        </mxCell>
        <mxCell id="iNkzKhBe8dIxD7oaoD0P-502" value="&lt;div style=&quot;font-size: 10px;&quot;&gt;&lt;font style=&quot;font-size: 10px;&quot;&gt;Milestone&lt;/font&gt;&lt;/div&gt;" style="rounded=0;whiteSpace=wrap;html=1;fontFamily=inconsolata;fillColor=#edf8b1;fontSource=https%3A%2F%2Ffonts.googleapis.com%2Fcss%3Ffamily%3Dinconsolata;" vertex="1" parent="1">
          <mxGeometry x="-1175" y="600" width="80" height="40" as="geometry" />
        </mxCell>
        <mxCell id="iNkzKhBe8dIxD7oaoD0P-503" value="&lt;div style=&quot;font-size: 10px;&quot;&gt;&lt;font style=&quot;font-size: 10px;&quot;&gt;Task&lt;/font&gt;&lt;/div&gt;" style="rounded=0;whiteSpace=wrap;html=1;fontFamily=inconsolata;fillColor=#ffffd9;fontSource=https%3A%2F%2Ffonts.googleapis.com%2Fcss%3Ffamily%3Dinconsolata;" vertex="1" parent="1">
          <mxGeometry x="-1095" y="620" width="40" height="20" as="geometry" />
        </mxCell>
        <mxCell id="iNkzKhBe8dIxD7oaoD0P-504" value="&lt;div style=&quot;font-size: 10px;&quot;&gt;&lt;font style=&quot;font-size: 10px;&quot;&gt;Task&lt;/font&gt;&lt;/div&gt;" style="rounded=0;whiteSpace=wrap;html=1;fontFamily=inconsolata;fillColor=#ffffd9;fontSource=https%3A%2F%2Ffonts.googleapis.com%2Fcss%3Ffamily%3Dinconsolata;" vertex="1" parent="1">
          <mxGeometry x="-1095" y="640" width="40" height="20" as="geometry" />
        </mxCell>
        <mxCell id="iNkzKhBe8dIxD7oaoD0P-505" value="&lt;div style=&quot;font-size: 10px;&quot;&gt;&lt;font style=&quot;font-size: 10px;&quot;&gt;Program&lt;/font&gt;&lt;/div&gt;" style="rounded=0;whiteSpace=wrap;html=1;fontFamily=inconsolata;fillColor=#41b6c4;fontSource=https%3A%2F%2Ffonts.googleapis.com%2Fcss%3Ffamily%3Dinconsolata;" vertex="1" parent="1">
          <mxGeometry x="-1335" y="640" width="80" height="100" as="geometry" />
        </mxCell>
        <mxCell id="iNkzKhBe8dIxD7oaoD0P-507" value="&lt;div style=&quot;font-size: 10px;&quot;&gt;&lt;font style=&quot;font-size: 10px;&quot;&gt;Milestone&lt;/font&gt;&lt;/div&gt;" style="rounded=0;whiteSpace=wrap;html=1;fontFamily=inconsolata;fillColor=#edf8b1;fontSource=https%3A%2F%2Ffonts.googleapis.com%2Fcss%3Ffamily%3Dinconsolata;" vertex="1" parent="1">
          <mxGeometry x="-1175" y="640" width="80" height="40" as="geometry" />
        </mxCell>
        <mxCell id="iNkzKhBe8dIxD7oaoD0P-508" value="&lt;div style=&quot;font-size: 10px;&quot;&gt;&lt;font style=&quot;font-size: 10px;&quot;&gt;Task&lt;/font&gt;&lt;/div&gt;" style="rounded=0;whiteSpace=wrap;html=1;fontFamily=inconsolata;fillColor=#ffffd9;fontSource=https%3A%2F%2Ffonts.googleapis.com%2Fcss%3Ffamily%3Dinconsolata;" vertex="1" parent="1">
          <mxGeometry x="-1095" y="660" width="40" height="20" as="geometry" />
        </mxCell>
        <mxCell id="iNkzKhBe8dIxD7oaoD0P-509" value="&lt;div style=&quot;font-size: 10px;&quot;&gt;&lt;font style=&quot;font-size: 10px;&quot;&gt;Task&lt;/font&gt;&lt;/div&gt;" style="rounded=0;whiteSpace=wrap;html=1;fontFamily=inconsolata;fillColor=#ffffd9;fontSource=https%3A%2F%2Ffonts.googleapis.com%2Fcss%3Ffamily%3Dinconsolata;" vertex="1" parent="1">
          <mxGeometry x="-1095" y="680" width="40" height="20" as="geometry" />
        </mxCell>
        <mxCell id="iNkzKhBe8dIxD7oaoD0P-510" value="&lt;div style=&quot;font-size: 10px;&quot;&gt;&lt;font style=&quot;font-size: 10px;&quot;&gt;Milestone&lt;/font&gt;&lt;/div&gt;" style="rounded=0;whiteSpace=wrap;html=1;fontFamily=inconsolata;fillColor=#edf8b1;fontSource=https%3A%2F%2Ffonts.googleapis.com%2Fcss%3Ffamily%3Dinconsolata;" vertex="1" parent="1">
          <mxGeometry x="-1175" y="680" width="80" height="20" as="geometry" />
        </mxCell>
        <mxCell id="iNkzKhBe8dIxD7oaoD0P-511" value="&lt;div style=&quot;font-size: 10px;&quot;&gt;&lt;font style=&quot;font-size: 10px;&quot;&gt;Task&lt;/font&gt;&lt;/div&gt;" style="rounded=0;whiteSpace=wrap;html=1;fontFamily=inconsolata;fillColor=#ffffd9;fontSource=https%3A%2F%2Ffonts.googleapis.com%2Fcss%3Ffamily%3Dinconsolata;" vertex="1" parent="1">
          <mxGeometry x="-1095" y="700" width="40" height="20" as="geometry" />
        </mxCell>
        <mxCell id="iNkzKhBe8dIxD7oaoD0P-512" value="&lt;div style=&quot;font-size: 10px;&quot;&gt;&lt;font style=&quot;font-size: 10px;&quot;&gt;Task&lt;/font&gt;&lt;/div&gt;" style="rounded=0;whiteSpace=wrap;html=1;fontFamily=inconsolata;fillColor=#ffffd9;fontSource=https%3A%2F%2Ffonts.googleapis.com%2Fcss%3Ffamily%3Dinconsolata;" vertex="1" parent="1">
          <mxGeometry x="-1095" y="720" width="40" height="20" as="geometry" />
        </mxCell>
        <mxCell id="iNkzKhBe8dIxD7oaoD0P-513" value="&lt;div style=&quot;font-size: 10px;&quot;&gt;&lt;div&gt;&lt;font style=&quot;font-size: 10px;&quot;&gt;Project&lt;/font&gt;&lt;/div&gt;&lt;/div&gt;" style="rounded=0;whiteSpace=wrap;html=1;fontFamily=inconsolata;fillColor=#c7e9b4;fontSource=https%3A%2F%2Ffonts.googleapis.com%2Fcss%3Ffamily%3Dinconsolata;" vertex="1" parent="1">
          <mxGeometry x="-1255" y="680" width="80" height="100" as="geometry" />
        </mxCell>
        <mxCell id="iNkzKhBe8dIxD7oaoD0P-514" value="&lt;div style=&quot;font-size: 10px;&quot;&gt;&lt;font style=&quot;font-size: 10px;&quot;&gt;Milestone&lt;/font&gt;&lt;/div&gt;" style="rounded=0;whiteSpace=wrap;html=1;fontFamily=inconsolata;fillColor=#edf8b1;fontSource=https%3A%2F%2Ffonts.googleapis.com%2Fcss%3Ffamily%3Dinconsolata;" vertex="1" parent="1">
          <mxGeometry x="-1175" y="700" width="80" height="40" as="geometry" />
        </mxCell>
        <mxCell id="iNkzKhBe8dIxD7oaoD0P-526" value="&lt;div style=&quot;font-size: 10px;&quot;&gt;&lt;font style=&quot;font-size: 10px;&quot;&gt;Program&lt;/font&gt;&lt;/div&gt;" style="rounded=0;whiteSpace=wrap;html=1;fontFamily=inconsolata;fillColor=#41b6c4;fontSource=https%3A%2F%2Ffonts.googleapis.com%2Fcss%3Ffamily%3Dinconsolata;" vertex="1" parent="1">
          <mxGeometry x="-1335" y="320" width="80" height="320" as="geometry" />
        </mxCell>
        <mxCell id="iNkzKhBe8dIxD7oaoD0P-527" value="&lt;div style=&quot;font-size: 10px;&quot;&gt;&lt;font style=&quot;font-size: 10px;&quot;&gt;Task&lt;/font&gt;&lt;/div&gt;" style="rounded=0;whiteSpace=wrap;html=1;fontFamily=inconsolata;fillColor=#ffffd9;fontSource=https%3A%2F%2Ffonts.googleapis.com%2Fcss%3Ffamily%3Dinconsolata;" vertex="1" parent="1">
          <mxGeometry x="-1095" y="740" width="40" height="20" as="geometry" />
        </mxCell>
        <mxCell id="iNkzKhBe8dIxD7oaoD0P-528" value="&lt;div style=&quot;font-size: 10px;&quot;&gt;&lt;div&gt;&lt;font style=&quot;font-size: 10px;&quot;&gt;Organization&lt;/font&gt;&lt;/div&gt;&lt;/div&gt;" style="rounded=0;whiteSpace=wrap;html=1;fontFamily=inconsolata;fillColor=#225ea8;fontSource=https%3A%2F%2Ffonts.googleapis.com%2Fcss%3Ffamily%3Dinconsolata;" vertex="1" parent="1">
          <mxGeometry x="-1495" y="800" width="80" height="140" as="geometry" />
        </mxCell>
        <mxCell id="iNkzKhBe8dIxD7oaoD0P-529" value="&lt;div style=&quot;font-size: 10px;&quot;&gt;&lt;div&gt;&lt;font style=&quot;font-size: 10px;&quot; data-font-src=&quot;https://fonts.googleapis.com/css?family=inconsolata&quot;&gt;Portfolio&lt;/font&gt;&lt;font style=&quot;font-size: 10px;&quot;&gt;&lt;br&gt;&lt;/font&gt;&lt;/div&gt;&lt;/div&gt;" style="rounded=0;whiteSpace=wrap;html=1;fontFamily=inconsolata;fillColor=#1d91c0;fontSource=https%3A%2F%2Ffonts.googleapis.com%2Fcss%3Ffamily%3Dinconsolata;" vertex="1" parent="1">
          <mxGeometry x="-1415" y="740" width="80" height="200" as="geometry" />
        </mxCell>
        <mxCell id="iNkzKhBe8dIxD7oaoD0P-530" value="&lt;div style=&quot;font-size: 10px;&quot;&gt;&lt;font style=&quot;font-size: 10px;&quot;&gt;Program&lt;/font&gt;&lt;/div&gt;" style="rounded=0;whiteSpace=wrap;html=1;fontFamily=inconsolata;fillColor=#41b6c4;fontSource=https%3A%2F%2Ffonts.googleapis.com%2Fcss%3Ffamily%3Dinconsolata;" vertex="1" parent="1">
          <mxGeometry x="-1335" y="740" width="80" height="200" as="geometry" />
        </mxCell>
        <mxCell id="iNkzKhBe8dIxD7oaoD0P-531" value="&lt;div style=&quot;font-size: 10px;&quot;&gt;&lt;div&gt;&lt;font style=&quot;font-size: 10px;&quot;&gt;Project&lt;/font&gt;&lt;/div&gt;&lt;/div&gt;" style="rounded=0;whiteSpace=wrap;html=1;fontFamily=inconsolata;fillColor=#c7e9b4;fontSource=https%3A%2F%2Ffonts.googleapis.com%2Fcss%3Ffamily%3Dinconsolata;" vertex="1" parent="1">
          <mxGeometry x="-1255" y="780" width="80" height="80" as="geometry" />
        </mxCell>
        <mxCell id="iNkzKhBe8dIxD7oaoD0P-532" value="&lt;div style=&quot;font-size: 10px;&quot;&gt;&lt;font style=&quot;font-size: 10px;&quot;&gt;Milestone&lt;/font&gt;&lt;/div&gt;" style="rounded=0;whiteSpace=wrap;html=1;fontFamily=inconsolata;fillColor=#edf8b1;fontSource=https%3A%2F%2Ffonts.googleapis.com%2Fcss%3Ffamily%3Dinconsolata;" vertex="1" parent="1">
          <mxGeometry x="-1175" y="740" width="80" height="40" as="geometry" />
        </mxCell>
        <mxCell id="iNkzKhBe8dIxD7oaoD0P-533" value="&lt;div style=&quot;font-size: 10px;&quot;&gt;&lt;font style=&quot;font-size: 10px;&quot;&gt;Task&lt;/font&gt;&lt;/div&gt;" style="rounded=0;whiteSpace=wrap;html=1;fontFamily=inconsolata;fillColor=#ffffd9;fontSource=https%3A%2F%2Ffonts.googleapis.com%2Fcss%3Ffamily%3Dinconsolata;" vertex="1" parent="1">
          <mxGeometry x="-1095" y="760" width="40" height="20" as="geometry" />
        </mxCell>
        <mxCell id="iNkzKhBe8dIxD7oaoD0P-534" value="&lt;div style=&quot;font-size: 10px;&quot;&gt;&lt;font style=&quot;font-size: 10px;&quot;&gt;Task&lt;/font&gt;&lt;/div&gt;" style="rounded=0;whiteSpace=wrap;html=1;fontFamily=inconsolata;fillColor=#ffffd9;fontSource=https%3A%2F%2Ffonts.googleapis.com%2Fcss%3Ffamily%3Dinconsolata;" vertex="1" parent="1">
          <mxGeometry x="-1095" y="780" width="40" height="20" as="geometry" />
        </mxCell>
        <mxCell id="iNkzKhBe8dIxD7oaoD0P-535" value="&lt;div style=&quot;font-size: 10px;&quot;&gt;&lt;font style=&quot;font-size: 10px;&quot;&gt;Milestone&lt;/font&gt;&lt;/div&gt;" style="rounded=0;whiteSpace=wrap;html=1;fontFamily=inconsolata;fillColor=#edf8b1;fontSource=https%3A%2F%2Ffonts.googleapis.com%2Fcss%3Ffamily%3Dinconsolata;" vertex="1" parent="1">
          <mxGeometry x="-1175" y="780" width="80" height="40" as="geometry" />
        </mxCell>
        <mxCell id="iNkzKhBe8dIxD7oaoD0P-536" value="&lt;div style=&quot;font-size: 10px;&quot;&gt;&lt;font style=&quot;font-size: 10px;&quot;&gt;Task&lt;/font&gt;&lt;/div&gt;" style="rounded=0;whiteSpace=wrap;html=1;fontFamily=inconsolata;fillColor=#ffffd9;fontSource=https%3A%2F%2Ffonts.googleapis.com%2Fcss%3Ffamily%3Dinconsolata;" vertex="1" parent="1">
          <mxGeometry x="-1095" y="800" width="40" height="20" as="geometry" />
        </mxCell>
        <mxCell id="iNkzKhBe8dIxD7oaoD0P-539" value="&lt;div style=&quot;font-size: 10px;&quot;&gt;&lt;font style=&quot;font-size: 10px;&quot;&gt;Milestone&lt;/font&gt;&lt;/div&gt;" style="rounded=0;whiteSpace=wrap;html=1;fontFamily=inconsolata;fillColor=#edf8b1;fontSource=https%3A%2F%2Ffonts.googleapis.com%2Fcss%3Ffamily%3Dinconsolata;" vertex="1" parent="1">
          <mxGeometry x="-1175" y="820" width="80" height="40" as="geometry" />
        </mxCell>
        <mxCell id="iNkzKhBe8dIxD7oaoD0P-587" value="&lt;div style=&quot;font-size: 10px;&quot;&gt;&lt;div&gt;&lt;font style=&quot;font-size: 10px;&quot;&gt;Project&lt;/font&gt;&lt;/div&gt;&lt;/div&gt;" style="rounded=0;whiteSpace=wrap;html=1;fontFamily=inconsolata;fillColor=#c7e9b4;fontSource=https%3A%2F%2Ffonts.googleapis.com%2Fcss%3Ffamily%3Dinconsolata;" vertex="1" parent="1">
          <mxGeometry x="-1255" y="860" width="80" height="80" as="geometry" />
        </mxCell>
        <mxCell id="iNkzKhBe8dIxD7oaoD0P-588" value="&lt;div style=&quot;font-size: 10px;&quot;&gt;&lt;p&gt;&lt;font style=&quot;font-size: 10px;&quot;&gt;Milestone&lt;/font&gt;&lt;/p&gt;&lt;/div&gt;" style="rounded=0;whiteSpace=wrap;html=1;fontFamily=inconsolata;fillColor=#edf8b1;fontSource=https%3A%2F%2Ffonts.googleapis.com%2Fcss%3Ffamily%3Dinconsolata;" vertex="1" parent="1">
          <mxGeometry x="-1175" y="900" width="80" height="40" as="geometry" />
        </mxCell>
        <mxCell id="iNkzKhBe8dIxD7oaoD0P-589" value="&lt;div style=&quot;font-size: 10px;&quot;&gt;&lt;font style=&quot;font-size: 10px;&quot;&gt;Milestone&lt;/font&gt;&lt;/div&gt;" style="rounded=0;whiteSpace=wrap;html=1;fontFamily=inconsolata;fillColor=#edf8b1;fontSource=https%3A%2F%2Ffonts.googleapis.com%2Fcss%3Ffamily%3Dinconsolata;" vertex="1" parent="1">
          <mxGeometry x="-1175" y="860" width="80" height="40" as="geometry" />
        </mxCell>
        <mxCell id="iNkzKhBe8dIxD7oaoD0P-590" value="&lt;div style=&quot;font-size: 10px;&quot;&gt;&lt;font style=&quot;font-size: 10px;&quot;&gt;Task&lt;/font&gt;&lt;/div&gt;" style="rounded=0;whiteSpace=wrap;html=1;fontFamily=inconsolata;fillColor=#ffffd9;fontSource=https%3A%2F%2Ffonts.googleapis.com%2Fcss%3Ffamily%3Dinconsolata;" vertex="1" parent="1">
          <mxGeometry x="-1095" y="840" width="40" height="20" as="geometry" />
        </mxCell>
        <mxCell id="iNkzKhBe8dIxD7oaoD0P-591" value="&lt;div style=&quot;font-size: 10px;&quot;&gt;&lt;font style=&quot;font-size: 10px;&quot;&gt;Task&lt;/font&gt;&lt;/div&gt;" style="rounded=0;whiteSpace=wrap;html=1;fontFamily=inconsolata;fillColor=#ffffd9;fontSource=https%3A%2F%2Ffonts.googleapis.com%2Fcss%3Ffamily%3Dinconsolata;" vertex="1" parent="1">
          <mxGeometry x="-1095" y="820" width="40" height="20" as="geometry" />
        </mxCell>
        <mxCell id="iNkzKhBe8dIxD7oaoD0P-593" value="&lt;div style=&quot;font-size: 10px;&quot;&gt;&lt;font style=&quot;font-size: 10px;&quot;&gt;Task&lt;/font&gt;&lt;/div&gt;" style="rounded=0;whiteSpace=wrap;html=1;fontFamily=inconsolata;fillColor=#ffffd9;fontSource=https%3A%2F%2Ffonts.googleapis.com%2Fcss%3Ffamily%3Dinconsolata;" vertex="1" parent="1">
          <mxGeometry x="-1095" y="860" width="40" height="20" as="geometry" />
        </mxCell>
        <mxCell id="iNkzKhBe8dIxD7oaoD0P-595" value="&lt;div style=&quot;font-size: 10px;&quot;&gt;&lt;font style=&quot;font-size: 10px;&quot;&gt;Task&lt;/font&gt;&lt;/div&gt;" style="rounded=0;whiteSpace=wrap;html=1;fontFamily=inconsolata;fillColor=#ffffd9;fontSource=https%3A%2F%2Ffonts.googleapis.com%2Fcss%3Ffamily%3Dinconsolata;" vertex="1" parent="1">
          <mxGeometry x="-1095" y="880" width="40" height="20" as="geometry" />
        </mxCell>
        <mxCell id="iNkzKhBe8dIxD7oaoD0P-596" value="&lt;div style=&quot;font-size: 10px;&quot;&gt;&lt;font style=&quot;font-size: 10px;&quot;&gt;Task&lt;/font&gt;&lt;/div&gt;" style="rounded=0;whiteSpace=wrap;html=1;fontFamily=inconsolata;fillColor=#ffffd9;fontSource=https%3A%2F%2Ffonts.googleapis.com%2Fcss%3Ffamily%3Dinconsolata;" vertex="1" parent="1">
          <mxGeometry x="-1095" y="900" width="40" height="20" as="geometry" />
        </mxCell>
        <mxCell id="iNkzKhBe8dIxD7oaoD0P-597" value="&lt;div style=&quot;font-size: 10px;&quot;&gt;&lt;p&gt;&lt;font style=&quot;font-size: 10px;&quot;&gt;Task&lt;/font&gt;&lt;/p&gt;&lt;/div&gt;" style="rounded=0;whiteSpace=wrap;html=1;fontFamily=inconsolata;fillColor=#ffffd9;fontSource=https%3A%2F%2Ffonts.googleapis.com%2Fcss%3Ffamily%3Dinconsolata;" vertex="1" parent="1">
          <mxGeometry x="-1095" y="920" width="40" height="20" as="geometry" />
        </mxCell>
        <mxCell id="iNkzKhBe8dIxD7oaoD0P-615" value="&lt;font style=&quot;font-size: 24px;&quot;&gt;&lt;b&gt;System Organization&lt;/b&gt;&lt;/font&gt;" style="text;html=1;strokeColor=none;fillColor=none;align=center;verticalAlign=middle;whiteSpace=wrap;rounded=0;fontFamily=inconsolata;fontSource=https%3A%2F%2Ffonts.googleapis.com%2Fcss%3Ffamily%3Dinconsolata;" vertex="1" parent="1">
          <mxGeometry x="-1397" y="90" width="245" height="30" as="geometry" />
        </mxCell>
      </root>
    </mxGraphModel>
  </diagram>
</mxfile>
